# xmcd
# Track frame offsets:
# 182
# 16585
# 32870
# 48995
# 65212
# 91005
# 107280
# 131747
# 147537
# 163797
#
# Disc length: 2347 seconds
# Revision: 0
# Processed by: cddbd v1.4PL0 Copyright (c) Steve Scherf et al.
# Submitted via: VisiTrax 2.9.5.181 - For more info visit www.synapsa.com
#
DISCID=8209290a
DTITLE=Lonnie Brooks - Turn On The Night
DYEAR=1981
DGENRE=blues
TTITLE0=Eyeballin'
TTITLE1=Inflation
TTITLE2=Teenage Boogie Man
TTITLE3=Heavy Traffic
TTITLE4=I'll Take Care Of You
TTITLE5=T.V. Mama
TTITLE6=Mother Nature
TTITLE7=Don't Go To Sleep On Me
TTITLE8=Something You Got
TTITLE9=Zydeco
EXTD=
EXTT0=
EXTT1=
EXTT2=
EXTT3=
EXTT4=
EXTT5=
EXTT6=
EXTT7=
EXTT8=
EXTT9=
PLAYORDER=
